<mxfile host="app.diagrams.net" modified="2024-05-02T21:05:55.168Z" agent="Mozilla/5.0 (Windows NT 10.0; Win64; x64; rv:125.0) Gecko/20100101 Firefox/125.0" etag="0R8Dq5vHLdIUkUVVRf8N" version="24.3.1" type="device">
  <diagram name="Page-1" id="8G-TDpBrZnWFRdwxH2hP">
    <mxGraphModel dx="1050" dy="558" grid="0" gridSize="10" guides="1" tooltips="1" connect="1" arrows="1" fold="1" page="1" pageScale="1" pageWidth="827" pageHeight="1169" math="0" shadow="0">
      <root>
        <mxCell id="0" />
        <mxCell id="1" parent="0" />
        <mxCell id="ctMj3vyAkk-ZHn5RQAny-49" style="rounded=0;orthogonalLoop=1;jettySize=auto;html=1;entryX=0.5;entryY=1;entryDx=0;entryDy=0;" parent="1" source="ctMj3vyAkk-ZHn5RQAny-1" target="ctMj3vyAkk-ZHn5RQAny-8" edge="1">
          <mxGeometry relative="1" as="geometry" />
        </mxCell>
        <mxCell id="ctMj3vyAkk-ZHn5RQAny-50" style="rounded=0;orthogonalLoop=1;jettySize=auto;html=1;exitX=0.735;exitY=0.089;exitDx=0;exitDy=0;entryX=0.027;entryY=0.714;entryDx=0;entryDy=0;entryPerimeter=0;exitPerimeter=0;" parent="1" source="ctMj3vyAkk-ZHn5RQAny-1" target="ctMj3vyAkk-ZHn5RQAny-4" edge="1">
          <mxGeometry relative="1" as="geometry" />
        </mxCell>
        <mxCell id="ctMj3vyAkk-ZHn5RQAny-57" style="edgeStyle=orthogonalEdgeStyle;rounded=0;orthogonalLoop=1;jettySize=auto;html=1;entryX=0;entryY=0.5;entryDx=0;entryDy=0;" parent="1" source="ctMj3vyAkk-ZHn5RQAny-1" target="ctMj3vyAkk-ZHn5RQAny-51" edge="1">
          <mxGeometry relative="1" as="geometry" />
        </mxCell>
        <mxCell id="ctMj3vyAkk-ZHn5RQAny-66" style="rounded=0;orthogonalLoop=1;jettySize=auto;html=1;entryX=0;entryY=1;entryDx=0;entryDy=0;" parent="1" source="ctMj3vyAkk-ZHn5RQAny-1" target="ctMj3vyAkk-ZHn5RQAny-55" edge="1">
          <mxGeometry relative="1" as="geometry" />
        </mxCell>
        <mxCell id="ctMj3vyAkk-ZHn5RQAny-1" value="" style="ellipse;whiteSpace=wrap;html=1;" parent="1" vertex="1">
          <mxGeometry x="20" y="320" width="170" height="90" as="geometry" />
        </mxCell>
        <mxCell id="ctMj3vyAkk-ZHn5RQAny-2" value="&lt;font color=&quot;#000000&quot;&gt;ServerRefereeSite&lt;/font&gt;" style="ellipse;whiteSpace=wrap;html=1;movable=1;resizable=1;rotatable=1;deletable=1;editable=1;locked=0;connectable=1;fillColor=#A6A6A6;fontColor=#ffffff;strokeColor=#314354;" parent="1" vertex="1">
          <mxGeometry x="30" y="330" width="150" height="70" as="geometry" />
        </mxCell>
        <mxCell id="ctMj3vyAkk-ZHn5RQAny-56" style="rounded=0;orthogonalLoop=1;jettySize=auto;html=1;exitX=0;exitY=0.5;exitDx=0;exitDy=0;entryX=1;entryY=0.5;entryDx=0;entryDy=0;" parent="1" source="ctMj3vyAkk-ZHn5RQAny-4" target="ctMj3vyAkk-ZHn5RQAny-8" edge="1">
          <mxGeometry relative="1" as="geometry" />
        </mxCell>
        <mxCell id="ctMj3vyAkk-ZHn5RQAny-65" style="edgeStyle=orthogonalEdgeStyle;rounded=0;orthogonalLoop=1;jettySize=auto;html=1;entryX=0.5;entryY=0;entryDx=0;entryDy=0;" parent="1" source="ctMj3vyAkk-ZHn5RQAny-4" target="ctMj3vyAkk-ZHn5RQAny-51" edge="1">
          <mxGeometry relative="1" as="geometry" />
        </mxCell>
        <mxCell id="ctMj3vyAkk-ZHn5RQAny-4" value="&lt;font color=&quot;#000000&quot;&gt;cliProxy&lt;/font&gt;" style="ellipse;whiteSpace=wrap;html=1;movable=1;resizable=1;rotatable=1;deletable=1;editable=1;locked=0;connectable=1;fillColor=#A6A6A6;fontColor=#ffffff;strokeColor=#314354;" parent="1" vertex="1">
          <mxGeometry x="264" y="100" width="150" height="70" as="geometry" />
        </mxCell>
        <mxCell id="ctMj3vyAkk-ZHn5RQAny-8" value="scon" style="ellipse;whiteSpace=wrap;html=1;movable=1;resizable=1;rotatable=1;deletable=1;editable=1;locked=0;connectable=1;" parent="1" vertex="1">
          <mxGeometry x="30" y="100" width="150" height="70" as="geometry" />
        </mxCell>
        <mxCell id="ctMj3vyAkk-ZHn5RQAny-64" style="edgeStyle=orthogonalEdgeStyle;rounded=0;orthogonalLoop=1;jettySize=auto;html=1;entryX=0;entryY=0.5;entryDx=0;entryDy=0;" parent="1" source="ctMj3vyAkk-ZHn5RQAny-51" target="ctMj3vyAkk-ZHn5RQAny-52" edge="1">
          <mxGeometry relative="1" as="geometry" />
        </mxCell>
        <mxCell id="ctMj3vyAkk-ZHn5RQAny-51" value="&lt;font color=&quot;#000000&quot;&gt;iRefereeSite&lt;/font&gt;" style="ellipse;whiteSpace=wrap;html=1;movable=1;resizable=1;rotatable=1;deletable=1;editable=1;locked=0;connectable=1;" parent="1" vertex="1">
          <mxGeometry x="264" y="330" width="150" height="70" as="geometry" />
        </mxCell>
        <mxCell id="ctMj3vyAkk-ZHn5RQAny-52" value="&lt;div&gt;inMessage&lt;/div&gt;&lt;div&gt;outMessage&lt;br&gt;&lt;/div&gt;" style="ellipse;whiteSpace=wrap;html=1;movable=1;resizable=1;rotatable=1;deletable=1;editable=1;locked=0;connectable=1;" parent="1" vertex="1">
          <mxGeometry x="460" y="330" width="150" height="70" as="geometry" />
        </mxCell>
        <mxCell id="ctMj3vyAkk-ZHn5RQAny-62" style="edgeStyle=orthogonalEdgeStyle;rounded=0;orthogonalLoop=1;jettySize=auto;html=1;entryX=0;entryY=0.5;entryDx=0;entryDy=0;" parent="1" source="ctMj3vyAkk-ZHn5RQAny-53" target="ctMj3vyAkk-ZHn5RQAny-55" edge="1">
          <mxGeometry relative="1" as="geometry" />
        </mxCell>
        <mxCell id="ctMj3vyAkk-ZHn5RQAny-53" value="&lt;font color=&quot;#000000&quot;&gt;mRefereeSite&lt;/font&gt;" style="ellipse;whiteSpace=wrap;html=1;movable=1;resizable=1;rotatable=1;deletable=1;editable=1;locked=0;connectable=1;" parent="1" vertex="1">
          <mxGeometry x="460" y="100" width="150" height="70" as="geometry" />
        </mxCell>
        <mxCell id="ctMj3vyAkk-ZHn5RQAny-54" value="com" style="ellipse;whiteSpace=wrap;html=1;movable=1;resizable=1;rotatable=1;deletable=1;editable=1;locked=0;connectable=1;" parent="1" vertex="1">
          <mxGeometry x="660" y="330" width="150" height="70" as="geometry" />
        </mxCell>
        <mxCell id="ctMj3vyAkk-ZHn5RQAny-60" style="edgeStyle=orthogonalEdgeStyle;rounded=0;orthogonalLoop=1;jettySize=auto;html=1;entryX=0.5;entryY=0;entryDx=0;entryDy=0;" parent="1" source="ctMj3vyAkk-ZHn5RQAny-55" target="ctMj3vyAkk-ZHn5RQAny-54" edge="1">
          <mxGeometry relative="1" as="geometry" />
        </mxCell>
        <mxCell id="ctMj3vyAkk-ZHn5RQAny-61" style="rounded=0;orthogonalLoop=1;jettySize=auto;html=1;entryX=1;entryY=0;entryDx=0;entryDy=0;" parent="1" source="ctMj3vyAkk-ZHn5RQAny-55" target="ctMj3vyAkk-ZHn5RQAny-52" edge="1">
          <mxGeometry relative="1" as="geometry" />
        </mxCell>
        <mxCell id="ctMj3vyAkk-ZHn5RQAny-55" value="reposStub" style="ellipse;whiteSpace=wrap;html=1;movable=1;resizable=1;rotatable=1;deletable=1;editable=1;locked=0;connectable=1;" parent="1" vertex="1">
          <mxGeometry x="660" y="100" width="150" height="70" as="geometry" />
        </mxCell>
        <mxCell id="ctMj3vyAkk-ZHn5RQAny-59" style="rounded=0;orthogonalLoop=1;jettySize=auto;html=1;entryX=0.053;entryY=0.786;entryDx=0;entryDy=0;entryPerimeter=0;" parent="1" source="ctMj3vyAkk-ZHn5RQAny-1" target="ctMj3vyAkk-ZHn5RQAny-53" edge="1">
          <mxGeometry relative="1" as="geometry" />
        </mxCell>
        <mxCell id="ctMj3vyAkk-ZHn5RQAny-63" style="rounded=0;orthogonalLoop=1;jettySize=auto;html=1;exitX=1;exitY=0;exitDx=0;exitDy=0;entryX=0.24;entryY=0.929;entryDx=0;entryDy=0;entryPerimeter=0;" parent="1" source="ctMj3vyAkk-ZHn5RQAny-51" target="ctMj3vyAkk-ZHn5RQAny-53" edge="1">
          <mxGeometry relative="1" as="geometry" />
        </mxCell>
        <mxCell id="ctMj3vyAkk-ZHn5RQAny-67" value="&lt;font style=&quot;font-size: 14px;&quot;&gt;1&lt;/font&gt;" style="text;html=1;align=center;verticalAlign=middle;resizable=0;points=[];autosize=1;strokeColor=none;fillColor=none;" parent="1" vertex="1">
          <mxGeometry x="100" y="170" width="30" height="30" as="geometry" />
        </mxCell>
        <mxCell id="ctMj3vyAkk-ZHn5RQAny-68" value="2" style="text;html=1;align=center;verticalAlign=middle;resizable=0;points=[];autosize=1;strokeColor=none;fillColor=none;fontSize=14;horizontal=1;" parent="1" vertex="1">
          <mxGeometry x="234" y="340" width="30" height="30" as="geometry" />
        </mxCell>
        <mxCell id="ctMj3vyAkk-ZHn5RQAny-69" value="2" style="text;html=1;align=center;verticalAlign=middle;resizable=0;points=[];autosize=1;strokeColor=none;fillColor=none;fontSize=14;horizontal=1;" parent="1" vertex="1">
          <mxGeometry x="660" y="160" width="30" height="30" as="geometry" />
        </mxCell>
        <mxCell id="ctMj3vyAkk-ZHn5RQAny-70" value="2" style="text;html=1;align=center;verticalAlign=middle;resizable=0;points=[];autosize=1;strokeColor=none;fillColor=none;fontSize=14;horizontal=1;" parent="1" vertex="1">
          <mxGeometry x="430" y="140" width="30" height="30" as="geometry" />
        </mxCell>
        <mxCell id="ctMj3vyAkk-ZHn5RQAny-71" value="2" style="text;html=1;align=center;verticalAlign=middle;resizable=0;points=[];autosize=1;strokeColor=none;fillColor=none;fontSize=14;horizontal=1;rotation=0;" parent="1" vertex="1">
          <mxGeometry x="600" y="330" width="30" height="30" as="geometry" />
        </mxCell>
        <mxCell id="ctMj3vyAkk-ZHn5RQAny-72" value="4" style="text;html=1;align=center;verticalAlign=middle;resizable=0;points=[];autosize=1;strokeColor=none;fillColor=none;fontSize=14;horizontal=1;" parent="1" vertex="1">
          <mxGeometry x="180" y="110" width="30" height="30" as="geometry" />
        </mxCell>
        <mxCell id="ctMj3vyAkk-ZHn5RQAny-73" value="3" style="text;html=1;align=center;verticalAlign=middle;resizable=0;points=[];autosize=1;strokeColor=none;fillColor=none;fontSize=14;horizontal=1;" parent="1" vertex="1">
          <mxGeometry x="250" y="160" width="30" height="30" as="geometry" />
        </mxCell>
        <mxCell id="ctMj3vyAkk-ZHn5RQAny-74" value="6" style="text;html=1;align=center;verticalAlign=middle;resizable=0;points=[];autosize=1;strokeColor=none;fillColor=none;fontSize=14;horizontal=1;" parent="1" vertex="1">
          <mxGeometry x="480" y="170" width="30" height="30" as="geometry" />
        </mxCell>
        <mxCell id="ctMj3vyAkk-ZHn5RQAny-75" value="9" style="text;html=1;align=center;verticalAlign=middle;resizable=0;points=[];autosize=1;strokeColor=none;fillColor=none;fontSize=14;horizontal=1;" parent="1" vertex="1">
          <mxGeometry x="730" y="300" width="30" height="30" as="geometry" />
        </mxCell>
        <mxCell id="ctMj3vyAkk-ZHn5RQAny-76" value="7" style="text;html=1;align=center;verticalAlign=middle;resizable=0;points=[];autosize=1;strokeColor=none;fillColor=none;fontSize=14;horizontal=1;" parent="1" vertex="1">
          <mxGeometry x="430" y="340" width="30" height="30" as="geometry" />
        </mxCell>
        <mxCell id="ctMj3vyAkk-ZHn5RQAny-77" value="5" style="text;html=1;align=center;verticalAlign=middle;resizable=0;points=[];autosize=1;strokeColor=none;fillColor=none;fontSize=14;horizontal=1;" parent="1" vertex="1">
          <mxGeometry x="340" y="300" width="30" height="30" as="geometry" />
        </mxCell>
        <mxCell id="ctMj3vyAkk-ZHn5RQAny-78" value="8" style="text;html=1;align=center;verticalAlign=middle;resizable=0;points=[];autosize=1;strokeColor=none;fillColor=none;fontSize=14;horizontal=1;" parent="1" vertex="1">
          <mxGeometry x="630" y="110" width="30" height="30" as="geometry" />
        </mxCell>
      </root>
    </mxGraphModel>
  </diagram>
</mxfile>
